<svg width="100" height="114" viewBox="0 0 100 114" fill="none" xmlns="http://www.w3.org/2000/svg">
<path fill-rule="evenodd" clip-rule="evenodd" d="M23.645 39.5193C24.8723 29.0905 33.7413 21 44.5 21C51.9175 21 58.4368 24.8457 62.1729 30.652C63.9876 30.2256 65.8795 30 67.8239 30C81.4521 30 92.5 41.081 92.5 54.75C92.5 68.419 81.4521 79.5 67.8239 79.5H26.5341C15.4696 79.5 6.5 70.5036 6.5 59.4059C6.5 49.2923 13.9494 40.9238 23.645 39.5193Z" fill="url(#paint0_linear_384_106)"/>
<path d="M22.1813 92.633L18.3693 100.257C17.7518 101.492 18.2524 102.994 19.4873 103.611C20.7223 104.229 22.224 103.728 22.8414 102.493L26.6534 94.8691C27.2709 93.6341 26.7703 92.1324 25.5354 91.515C24.3004 90.8975 22.7987 91.3981 22.1813 92.633Z" fill="#A8D9FF"/>
<path d="M47.4323 92.633L43.6203 100.257C43.0028 101.492 43.5034 102.994 44.7384 103.611C45.9733 104.229 47.475 103.728 48.0925 102.493L51.9044 94.8691C52.5219 93.6341 52.0213 92.1324 50.7864 91.515C49.5515 90.8975 48.0498 91.3981 47.4323 92.633Z" fill="#A8D9FF"/>
<path d="M37.3944 87.0264L33.5825 94.6504C32.965 95.8853 33.4656 97.387 34.7005 98.0045C35.9354 98.6219 37.4371 98.1214 38.0546 96.8864L41.8666 89.2625C42.4841 88.0275 41.9835 86.5259 40.7485 85.9084C39.5136 85.2909 38.0119 85.7915 37.3944 87.0264Z" fill="#A8D9FF"/>
<path d="M62.6455 87.0264L58.8335 94.6504C58.216 95.8853 58.7166 97.387 59.9515 98.0045C61.1865 98.6219 62.6882 98.1214 63.3056 96.8864L67.1176 89.2625C67.7351 88.0275 67.2345 86.5259 65.9996 85.9084C64.7646 85.2909 63.263 85.7915 62.6455 87.0264Z" fill="#A8D9FF"/>
<path d="M44.5759 71.882L40.7639 79.5059C40.1465 80.7409 40.647 82.2425 41.882 82.86C43.1169 83.4775 44.6186 82.9769 45.2361 81.742L49.048 74.118C49.6655 72.8831 49.165 71.3814 47.93 70.7639C46.6951 70.1465 45.1934 70.647 44.5759 71.882Z" fill="#A8D9FF"/>
<path d="M70.0759 71.882L66.2639 79.5059C65.6465 80.7409 66.147 82.2425 67.382 82.86C68.6169 83.4775 70.1186 82.9769 70.7361 81.742L74.548 74.118C75.1655 72.8831 74.665 71.3814 73.43 70.7639C72.1951 70.1465 70.6934 70.647 70.0759 71.882Z" fill="#A8D9FF"/>
<path d="M54.5759 77.382L50.7639 85.0059C50.1465 86.2409 50.647 87.7425 51.882 88.36C53.1169 88.9775 54.6186 88.4769 55.2361 87.242L59.048 79.618C59.6655 78.3831 59.165 76.8814 57.93 76.2639C56.6951 75.6465 55.1934 76.147 54.5759 77.382Z" fill="#A8D9FF"/>
<path d="M29.5759 77.382L25.7639 85.0059C25.1465 86.2409 25.647 87.7425 26.882 88.36C28.1169 88.9775 29.6186 88.4769 30.2361 87.242L34.048 79.618C34.6655 78.3831 34.165 76.8814 32.93 76.2639C31.6951 75.6465 30.1934 76.147 29.5759 77.382Z" fill="#A8D9FF"/>
<defs>
<linearGradient id="paint0_linear_384_106" x1="6.5" y1="21" x2="6.5" y2="79.5" gradientUnits="userSpaceOnUse">
<stop stop-color="#A9D9FF"/>
<stop offset="1" stop-color="#7AC5FF"/>
</linearGradient>
</defs>
</svg>
